<mxfile host="app.diagrams.net" agent="Mozilla/5.0 (Windows NT 10.0; Win64; x64) AppleWebKit/537.36 (KHTML, like Gecko) Chrome/137.0.0.0 Safari/537.36" version="27.1.1">
  <diagram name="Page-1" id="VIlSmCx-O4cteewQ2sIu">
    <mxGraphModel dx="736" dy="531" grid="1" gridSize="10" guides="1" tooltips="1" connect="1" arrows="1" fold="1" page="1" pageScale="1" pageWidth="850" pageHeight="1100" math="0" shadow="0">
      <root>
        <mxCell id="0" />
        <mxCell id="1" parent="0" />
        <mxCell id="NRMGrarjCNaIgt-jtKIx-2" value="Archivo" style="swimlane;fontStyle=1;align=center;verticalAlign=top;childLayout=stackLayout;horizontal=1;startSize=26;horizontalStack=0;resizeParent=1;resizeParentMax=0;resizeLast=0;collapsible=1;marginBottom=0;whiteSpace=wrap;html=1;" vertex="1" parent="1">
          <mxGeometry x="80" y="290" width="200" height="180" as="geometry" />
        </mxCell>
        <mxCell id="NRMGrarjCNaIgt-jtKIx-3" value="&lt;div&gt;-tamaÃ±o : double&lt;/div&gt;&lt;div&gt;- fechaDeUltimaModificacion: LocalDate&lt;/div&gt;&lt;div&gt;- nombre: String&lt;/div&gt;" style="text;strokeColor=none;fillColor=none;align=left;verticalAlign=top;spacingLeft=4;spacingRight=4;overflow=hidden;rotatable=0;points=[[0,0.5],[1,0.5]];portConstraint=eastwest;whiteSpace=wrap;html=1;" vertex="1" parent="NRMGrarjCNaIgt-jtKIx-2">
          <mxGeometry y="26" width="200" height="64" as="geometry" />
        </mxCell>
        <mxCell id="NRMGrarjCNaIgt-jtKIx-4" value="" style="line;strokeWidth=1;fillColor=none;align=left;verticalAlign=middle;spacingTop=-1;spacingLeft=3;spacingRight=3;rotatable=0;labelPosition=right;points=[];portConstraint=eastwest;strokeColor=inherit;" vertex="1" parent="NRMGrarjCNaIgt-jtKIx-2">
          <mxGeometry y="90" width="200" height="8" as="geometry" />
        </mxCell>
        <mxCell id="NRMGrarjCNaIgt-jtKIx-5" value="&lt;p style=&quot;margin: 0px 0px 0px 4px;&quot;&gt;+ getNombre(): String&amp;nbsp;&lt;/p&gt;&lt;p style=&quot;margin: 0px 0px 0px 4px;&quot;&gt;&lt;span style=&quot;background-color: transparent; color: light-dark(rgb(0, 0, 0), rgb(255, 255, 255));&quot;&gt;+&amp;nbsp;&lt;/span&gt;&lt;span style=&quot;background-color: transparent; color: light-dark(rgb(0, 0, 0), rgb(255, 255, 255));&quot;&gt;totalSize()&amp;nbsp;&lt;/span&gt;&lt;span style=&quot;background-color: transparent; color: light-dark(rgb(0, 0, 0), rgb(255, 255, 255));&quot;&gt;double&lt;/span&gt;&lt;span style=&quot;background-color: transparent; color: light-dark(rgb(0, 0, 0), rgb(255, 255, 255));&quot;&gt;&amp;nbsp;&lt;/span&gt;&lt;/p&gt;&lt;div&gt;-+ printStructure() void&lt;/div&gt;&lt;div&gt;&amp;nbsp;+ lastModified() LocalDate&lt;/div&gt;&lt;div&gt;&amp;nbsp;+ oldestElement() Archivo&lt;/div&gt;" style="text;strokeColor=none;fillColor=none;align=left;verticalAlign=top;spacingLeft=4;spacingRight=4;overflow=hidden;rotatable=0;points=[[0,0.5],[1,0.5]];portConstraint=eastwest;whiteSpace=wrap;html=1;" vertex="1" parent="NRMGrarjCNaIgt-jtKIx-2">
          <mxGeometry y="98" width="200" height="82" as="geometry" />
        </mxCell>
        <mxCell id="NRMGrarjCNaIgt-jtKIx-6" value="Directorio" style="swimlane;fontStyle=1;align=center;verticalAlign=top;childLayout=stackLayout;horizontal=1;startSize=26;horizontalStack=0;resizeParent=1;resizeParentMax=0;resizeLast=0;collapsible=1;marginBottom=0;whiteSpace=wrap;html=1;" vertex="1" parent="1">
          <mxGeometry x="380" y="290" width="220" height="180" as="geometry" />
        </mxCell>
        <mxCell id="NRMGrarjCNaIgt-jtKIx-7" value="&lt;div&gt;- contenido : List &amp;lt;Archivcable&amp;gt;&lt;/div&gt;&lt;div&gt;- fechaCreacion: LocalDate&lt;/div&gt;&lt;div&gt;- nombre: String&lt;/div&gt;" style="text;strokeColor=none;fillColor=none;align=left;verticalAlign=top;spacingLeft=4;spacingRight=4;overflow=hidden;rotatable=0;points=[[0,0.5],[1,0.5]];portConstraint=eastwest;whiteSpace=wrap;html=1;" vertex="1" parent="NRMGrarjCNaIgt-jtKIx-6">
          <mxGeometry y="26" width="220" height="64" as="geometry" />
        </mxCell>
        <mxCell id="NRMGrarjCNaIgt-jtKIx-8" value="" style="line;strokeWidth=1;fillColor=none;align=left;verticalAlign=middle;spacingTop=-1;spacingLeft=3;spacingRight=3;rotatable=0;labelPosition=right;points=[];portConstraint=eastwest;strokeColor=inherit;" vertex="1" parent="NRMGrarjCNaIgt-jtKIx-6">
          <mxGeometry y="90" width="220" height="8" as="geometry" />
        </mxCell>
        <mxCell id="NRMGrarjCNaIgt-jtKIx-9" value="&lt;p style=&quot;margin: 0px 0px 0px 4px;&quot;&gt;+ getNombre(): String&amp;nbsp;&lt;/p&gt;&lt;p style=&quot;margin: 0px 0px 0px 4px;&quot;&gt;&lt;span style=&quot;background-color: transparent; color: light-dark(rgb(0, 0, 0), rgb(255, 255, 255));&quot;&gt;+&amp;nbsp;&lt;/span&gt;&lt;span style=&quot;background-color: transparent; color: light-dark(rgb(0, 0, 0), rgb(255, 255, 255));&quot;&gt;totalSize()&amp;nbsp;&lt;/span&gt;&lt;span style=&quot;background-color: transparent; color: light-dark(rgb(0, 0, 0), rgb(255, 255, 255));&quot;&gt;double&lt;/span&gt;&lt;span style=&quot;background-color: transparent; color: light-dark(rgb(0, 0, 0), rgb(255, 255, 255));&quot;&gt;&amp;nbsp;&lt;/span&gt;&lt;/p&gt;&lt;div&gt;-+ printStructure() void&lt;/div&gt;&lt;div&gt;&amp;nbsp;+ lastModified() LocalDate&lt;/div&gt;&lt;div&gt;&amp;nbsp;+ oldestElement() Archivo&lt;/div&gt;" style="text;strokeColor=none;fillColor=none;align=left;verticalAlign=top;spacingLeft=4;spacingRight=4;overflow=hidden;rotatable=0;points=[[0,0.5],[1,0.5]];portConstraint=eastwest;whiteSpace=wrap;html=1;" vertex="1" parent="NRMGrarjCNaIgt-jtKIx-6">
          <mxGeometry y="98" width="220" height="82" as="geometry" />
        </mxCell>
        <mxCell id="NRMGrarjCNaIgt-jtKIx-11" value="&lt;p style=&quot;margin:0px;margin-top:4px;text-align:center;&quot;&gt;&lt;i&gt;&amp;lt;&amp;lt;Interface&amp;gt;&amp;gt;&lt;/i&gt;&lt;br&gt;&lt;b&gt;Archivable&lt;/b&gt;&lt;/p&gt;&lt;hr size=&quot;1&quot; style=&quot;border-style:solid;&quot;&gt;&lt;p style=&quot;margin:0px;margin-left:4px;&quot;&gt;&lt;br&gt;&lt;/p&gt;&lt;hr size=&quot;1&quot; style=&quot;border-style:solid;&quot;&gt;&lt;p style=&quot;margin:0px;margin-left:4px;&quot;&gt;+ getNombre(): String&amp;nbsp;&lt;/p&gt;&lt;p style=&quot;margin:0px;margin-left:4px;&quot;&gt;&lt;span style=&quot;background-color: transparent; color: light-dark(rgb(0, 0, 0), rgb(255, 255, 255));&quot;&gt;+&amp;nbsp;&lt;/span&gt;&lt;span style=&quot;background-color: transparent; color: light-dark(rgb(0, 0, 0), rgb(255, 255, 255));&quot;&gt;totalSize()&amp;nbsp;&lt;/span&gt;&lt;span style=&quot;background-color: transparent; color: light-dark(rgb(0, 0, 0), rgb(255, 255, 255));&quot;&gt;double&lt;/span&gt;&lt;span style=&quot;background-color: transparent; color: light-dark(rgb(0, 0, 0), rgb(255, 255, 255));&quot;&gt;&amp;nbsp;&lt;/span&gt;&lt;/p&gt;&lt;div&gt;-+ printStructure() void&lt;/div&gt;&lt;div&gt;&amp;nbsp;+ lastModified() LocalDate&lt;/div&gt;&lt;div&gt;&amp;nbsp;+ oldestElement() Archivo&lt;/div&gt;&lt;p style=&quot;margin:0px;margin-left:4px;&quot;&gt;&lt;br&gt;&lt;/p&gt;" style="verticalAlign=top;align=left;overflow=fill;html=1;whiteSpace=wrap;" vertex="1" parent="1">
          <mxGeometry x="220" y="70" width="190" height="160" as="geometry" />
        </mxCell>
        <mxCell id="NRMGrarjCNaIgt-jtKIx-17" value="Use" style="endArrow=open;endSize=12;dashed=1;html=1;rounded=0;exitX=0.324;exitY=0.001;exitDx=0;exitDy=0;exitPerimeter=0;" edge="1" parent="1" source="NRMGrarjCNaIgt-jtKIx-2">
          <mxGeometry width="160" relative="1" as="geometry">
            <mxPoint x="80" y="230" as="sourcePoint" />
            <mxPoint x="240" y="230" as="targetPoint" />
          </mxGeometry>
        </mxCell>
        <mxCell id="NRMGrarjCNaIgt-jtKIx-18" value="Use" style="endArrow=open;endSize=12;dashed=1;html=1;rounded=0;exitX=0.432;exitY=-0.004;exitDx=0;exitDy=0;exitPerimeter=0;" edge="1" parent="1" source="NRMGrarjCNaIgt-jtKIx-6">
          <mxGeometry width="160" relative="1" as="geometry">
            <mxPoint x="280" y="290" as="sourcePoint" />
            <mxPoint x="375" y="230" as="targetPoint" />
          </mxGeometry>
        </mxCell>
        <mxCell id="NRMGrarjCNaIgt-jtKIx-19" value="" style="endArrow=none;html=1;edgeStyle=orthogonalEdgeStyle;rounded=0;exitX=1.016;exitY=0.687;exitDx=0;exitDy=0;exitPerimeter=0;entryX=1.004;entryY=0.4;entryDx=0;entryDy=0;entryPerimeter=0;" edge="1" parent="1" source="NRMGrarjCNaIgt-jtKIx-7" target="NRMGrarjCNaIgt-jtKIx-11">
          <mxGeometry relative="1" as="geometry">
            <mxPoint x="340" y="260" as="sourcePoint" />
            <mxPoint x="500" y="260" as="targetPoint" />
            <Array as="points">
              <mxPoint x="640" y="360" />
              <mxPoint x="640" y="134" />
            </Array>
          </mxGeometry>
        </mxCell>
        <mxCell id="NRMGrarjCNaIgt-jtKIx-20" value="parent" style="edgeLabel;resizable=0;html=1;align=left;verticalAlign=bottom;" connectable="0" vertex="1" parent="NRMGrarjCNaIgt-jtKIx-19">
          <mxGeometry x="-1" relative="1" as="geometry" />
        </mxCell>
        <mxCell id="NRMGrarjCNaIgt-jtKIx-21" value="child" style="edgeLabel;resizable=0;html=1;align=right;verticalAlign=bottom;" connectable="0" vertex="1" parent="NRMGrarjCNaIgt-jtKIx-19">
          <mxGeometry x="1" relative="1" as="geometry">
            <mxPoint x="39" y="-4" as="offset" />
          </mxGeometry>
        </mxCell>
      </root>
    </mxGraphModel>
  </diagram>
</mxfile>
